<svg xmlns="http://www.w3.org/2000/svg" width="19" height="19"><style/><g id="Bottom Navbar"><g id="Right Nav"><g id="Cart"><path id="Cart Icon" d="M6.35 14.76a1.786 1.786 0 000 3.57 1.786 1.786 0 000-3.57zm0 2.35a.56.56 0 11-.002-1.122.56.56 0 01.002 1.122zm7.12-2.35a1.786 1.786 0 000 3.57c.99 0 1.78-.8 1.78-1.78 0-.99-.79-1.79-1.78-1.79zm0 2.35a.56.56 0 11-.002-1.122.56.56 0 01.002 1.122zm4.2-15.99c-.23-.22-.53-.35-.85-.41-.02 0-.05-.01-.07-.01-.1-.01-.2-.03-.3-.03h-15c-.34 0-.62.28-.62.61 0 .34.28.61.62.61h1.3v.01h.05c-.13.28-.21.59-.21.91v9.43c0 1.18.96 2.14 2.14 2.14h11.11c.34 0 .61-.28.61-.61 0-.34-.27-.61-.61-.61H4.73c-.5 0-.91-.42-.91-.92v-1.41c.26.12.55.19.86.19h8.56c1.15-.03 2.21-.78 2.61-1.85l1.52-4.31.68-1.93c.07-.22.11-.43.11-.65.01-.44-.17-.87-.49-1.16zm-.77 1.41l-2.2 6.23c-.15.51-.92 1.06-1.46 1.04H4.68a.926.926 0 01-.86-.64V2.81c0-.5.41-.91.91-.91h11.73c.05 0 .11.01.16.02.02 0 .03 0 .05.01.01 0 .03.01.05.01.05.02.09.05.12.08.06.06.1.12.1.26 0 .06-.01.15-.04.25z" fill="#fcfcfc"/></g></g></g></svg>