<svg xmlns="http://www.w3.org/2000/svg" width="21" height="18"><style/><g id="Bottom Navbar"><g id="Right Nav"><g id="Search"><path id="Search Icon" d="M-.02 7.02a6.42 6.42 0 006.42 6.42c2.08 0 3.92-1 5.09-2.53l1.71 1.26c-.12.28-.19.58-.19.87 0 .65.3 1.31.86 1.74l2.89 2.23a2.21 2.21 0 003.08-.4l.06-.08c.3-.4.45-.87.45-1.33v-.01c0-.65-.29-1.3-.85-1.73l-2.9-2.23c-.4-.31-.87-.46-1.33-.46-.46 0-.91.15-1.29.42l-1.83-1.35c.42-.85.66-1.81.66-2.82C12.81 3.48 9.94.6 6.4.6A6.42 6.42 0 00-.02 7.02zm15.86 5.2l2.89 2.23c.24.18.37.46.37.75 0 .2-.06.4-.2.57l-.06.07c-.18.24-.46.37-.74.37a.91.91 0 01-.57-.19l-2.9-2.23a.937.937 0 01-.36-.75c0-.2.06-.4.19-.57l.06-.08c.18-.24.46-.36.75-.36.2 0 .4.06.57.19zm-4.28-5.2c0 2.85-2.31 5.16-5.16 5.17a5.183 5.183 0 01-5.17-5.17A5.183 5.183 0 016.4 1.85c2.85.01 5.16 2.32 5.16 5.17z" fill="#fcfcfc"/></g></g></g></svg>